# xmcd CD database file
#
# Track frame offsets:
#	150
#	7282
#	25970
#	42927
#	53962
#	68655
#	79505
#	90117
#	103275
#	114432
#	132572
#	145045
#	155750
#	168990
#	189390
#	208125
#
# Disc length: 2837 seconds
#
# Revision: 2
# Processed by: cddbd v1.5.2PL0 Copyright (c) Steve Scherf et al.
# Submitted via: CDex 1.70beta3
#
DISCID=da0b1310
DTITLE=馬飼野 康二 - 戦闘メカ ザブングル BGM集 VOL.2
DYEAR=1986
DGENRE=Blues
TTITLE0=串田 アキラ/疾風ザブングル (TVサイズ)
TTITLE1=ドーム・シティ
TTITLE2=ソルト
TTITLE3=想いとどかば
TTITLE4=MIO/Hey you
TTITLE5=ブロークン・ハート
TTITLE6=イリュージョン
TTITLE7=ダンディ・ファットマン
TTITLE8=ウォーカー・ギャリア
TTITLE9=洗脳
TTITLE10=MIO/わすれ草
TTITLE11=プロジェクト
TTITLE12=全艦、集結せよ
TTITLE13=大決戦
TTITLE14=再生の時
TTITLE15=串田アキラ/乾いた大地
EXTD=YEAR: 1986
EXTT0=
EXTT1=
EXTT2=
EXTT3=
EXTT4=
EXTT5=
EXTT6=
EXTT7=
EXTT8=
EXTT9=
EXTT10=
EXTT11=
EXTT12=
EXTT13=
EXTT14=
EXTT15=
PLAYORDER=
